<?xml version="1.0" encoding="utf-8"?>
<!-- Generator: Moho 12.5 build 22438 -->
<!DOCTYPE svg PUBLIC "-//W3C//DTD SVG 1.1//EN" "http://www.w3.org/Graphics/SVG/1.1/DTD/svg11.dtd">
<svg version="1.1" id="Frame_0" xmlns="http://www.w3.org/2000/svg" xmlns:xlink="http://www.w3.org/1999/xlink" width="1920px" height="1080px">
<g id="Meat">
<path fill="#ad1235" fill-rule="evenodd" stroke="#000000" stroke-width="6" stroke-linecap="round" stroke-linejoin="round" d="M 627.725 782.876 C 627.742 782.878 801.286 802.715 801.303 802.717 C 801.372 802.710 1488.792 740.563 1488.861 740.557 C 1488.865 740.559 1528.640 744.586 1533.433 761.715 C 1539.469 783.283 1498.083 817.458 1498.080 817.464 C 1498.007 817.473 763.628 912.235 763.555 912.244 C 763.520 912.236 410.775 824.648 410.740 824.639 C 410.740 824.632 385.557 754.476 405.815 754.614 C 494.874 755.223 627.703 782.873 627.725 782.876 Z"/>
<path fill="#ffffff" fill-rule="evenodd" stroke="#000000" stroke-width="6" stroke-linecap="round" stroke-linejoin="round" d="M 630.663 388.795 C 630.679 388.797 799.028 408.040 799.044 408.042 C 799.111 408.036 1465.953 347.749 1466.020 347.743 C 1466.024 347.745 1502.503 352.590 1509.258 368.268 C 1518.750 390.299 1487.739 438.309 1487.737 438.316 C 1487.699 438.319 1107.374 475.964 1107.336 475.967 C 1107.271 475.963 458.562 435.700 458.497 435.695 C 458.493 435.688 390.980 369.951 415.396 361.380 C 497.858 332.430 630.641 388.792 630.663 388.795 Z"/>
<path fill="#4f5a1b" fill-rule="evenodd" stroke="#000000" stroke-width="6" stroke-linecap="round" stroke-linejoin="round" d="M 601.920 711.349 C 601.936 711.348 763.899 692.275 763.915 692.273 C 763.984 692.272 1453.176 679.879 1453.245 679.878 C 1453.255 679.884 1582.508 711.400 1553.968 738.726 C 1546.911 745.483 1526.063 735.321 1526.060 735.321 C 1525.988 735.328 807.209 808.095 807.137 808.103 C 807.098 808.099 417.019 767.835 416.980 767.831 C 416.977 767.822 360.892 688.742 386.654 683.934 C 471.880 668.028 601.899 711.347 601.920 711.349 Z"/>
<path fill="#bda370" fill-rule="evenodd" stroke="#000000" stroke-width="6" stroke-linecap="round" stroke-linejoin="round" d="M 793.536 388.795 C 793.562 388.797 1048.121 411.233 1048.146 411.236 C 1048.188 411.236 1469.171 414.808 1469.213 414.809 C 1469.217 414.826 1537.525 540.530 1509.258 591.820 C 1464.707 672.656 1254.630 623.542 1254.604 623.545 C 1254.540 623.546 609.198 632.453 609.133 632.454 C 609.113 632.453 430.166 654.813 410.593 624.119 C 390.608 592.777 405.489 390.243 469.687 406.090 C 595.966 437.262 793.504 388.797 793.536 388.795 Z"/>
<path fill="#9e8253" fill-rule="evenodd" stroke="#000000" stroke-width="6" stroke-linecap="round" stroke-linejoin="round" d="M 624.276 589.992 C 624.313 589.991 1000.204 577.305 1000.242 577.303 C 1000.284 577.309 1427.653 631.969 1427.696 631.974 C 1427.701 631.974 1457.436 624.868 1470.934 630.144 C 1498.966 641.101 1535.635 700.184 1535.641 700.191 C 1535.595 700.195 1069.060 737.840 1069.013 737.843 C 1068.948 737.839 420.238 697.576 420.174 697.571 C 420.169 697.564 353.402 634.153 377.073 623.256 C 468.943 580.961 624.251 589.996 624.276 589.992 Z"/>
</g>
<g id="Tomato">
<path fill="#ff0000" fill-rule="evenodd" stroke="#000000" stroke-width="6" stroke-linecap="round" stroke-linejoin="round" d="M 424.432 298.257 C 424.540 298.257 1501.767 298.257 1501.875 298.257 C 1501.875 298.263 1501.875 354.518 1501.875 354.524 C 1501.795 354.532 844.948 455.154 704.323 439.904 C 653.181 434.358 424.460 357.726 424.432 357.717 C 424.432 357.712 424.432 298.263 424.432 298.257 Z"/>
</g>
<g id="Bread">
<path fill="#ffd800" fill-rule="evenodd" stroke="#000000" stroke-width="6" stroke-linecap="round" stroke-linejoin="round" d="M 410.698 206.267 C 410.778 206.257 1202.635 107.275 1202.714 107.265 C 1202.745 107.277 1504.328 223.351 1504.358 223.363 C 1504.358 223.371 1509.301 302.068 1509.302 302.076 C 1509.222 302.083 714.171 372.328 714.092 372.335 C 714.063 372.328 425.224 301.754 425.195 301.747 C 425.194 301.738 416.116 211.390 416.115 211.380 C 416.115 211.380 410.699 206.268 410.698 206.267 Z"/>
<path fill="#efb165" fill-rule="evenodd" stroke="#000000" stroke-width="6" stroke-linecap="round" stroke-linejoin="round" d="M 406.199 813.054 C 406.240 813.059 823.253 856.203 823.295 856.208 C 823.364 856.205 1509.233 825.832 1509.302 825.828 C 1509.299 825.843 1483.756 970.393 1483.753 970.407 C 1483.677 970.418 725.635 1078.979 725.560 1078.990 C 725.530 1078.973 427.307 910.928 427.278 910.911 C 427.276 910.902 406.201 813.064 406.199 813.054 Z"/>
<path fill="none" stroke="#efb165" stroke-width="1" stroke-linecap="butt" stroke-linejoin="round" d="M 1504.358 223.363 C 1504.358 223.371 1509.301 302.068 1509.302 302.076 "/>
<path fill="none" stroke="#efb165" stroke-width="1" stroke-linecap="butt" stroke-linejoin="round" d="M 1509.302 302.076 C 1509.222 302.083 714.171 372.328 714.092 372.335 "/>
<path fill="none" stroke="#efb165" stroke-width="1" stroke-linecap="butt" stroke-linejoin="round" d="M 714.092 372.335 C 714.063 372.328 425.224 301.754 425.195 301.747 "/>
<path fill="none" stroke="#efb165" stroke-width="1" stroke-linecap="butt" stroke-linejoin="round" d="M 425.195 301.747 C 425.194 301.738 416.116 211.390 416.115 211.380 "/>
<path fill="#efb165" fill-rule="evenodd" stroke="#000000" stroke-width="6" stroke-linecap="round" stroke-linejoin="round" d="M 723.673 273.333 C 723.751 273.328 1244.130 240.020 1504.358 223.363 C 1504.358 223.371 1509.301 302.068 1509.302 302.076 C 1509.222 302.083 714.171 372.328 714.092 372.335 C 714.063 372.328 425.224 301.754 425.195 301.747 C 425.194 301.738 416.116 211.390 416.115 211.380 C 518.634 232.031 723.642 273.327 723.673 273.333 Z"/>
<path fill="none" stroke="#fbeac6" stroke-width="1" stroke-linecap="butt" stroke-linejoin="round" d="M 723.673 273.333 C 723.751 273.328 1244.130 240.020 1504.358 223.363 "/>
<path fill="none" stroke="#fbeac6" stroke-width="1" stroke-linecap="butt" stroke-linejoin="round" d="M 1504.358 223.363 C 1504.328 223.351 1202.745 107.277 1202.714 107.265 "/>
<path fill="none" stroke="#fbeac6" stroke-width="1" stroke-linecap="butt" stroke-linejoin="round" d="M 1202.714 107.265 C 1202.635 107.275 410.778 206.257 410.698 206.267 "/>
<path fill="none" stroke="#fbeac6" stroke-width="1" stroke-linecap="butt" stroke-linejoin="round" d="M 410.698 206.267 C 410.699 206.268 416.115 211.380 416.115 211.380 "/>
<path fill="none" stroke="#fbeac6" stroke-width="1" stroke-linecap="butt" stroke-linejoin="round" d="M 416.115 211.380 C 518.634 232.031 723.642 273.327 723.673 273.333 "/>
<path fill="#fbeac6" fill-rule="evenodd" stroke="#000000" stroke-width="6" stroke-linecap="round" stroke-linejoin="round" d="M 723.673 273.333 C 723.751 273.328 1244.130 240.020 1504.358 223.363 C 1504.328 223.351 1202.745 107.277 1202.714 107.265 C 1202.635 107.275 410.778 206.257 410.698 206.267 C 410.699 206.268 416.115 211.380 416.115 211.380 C 518.634 232.031 723.642 273.327 723.673 273.333 Z"/>
</g>
<g id="Lettuce">
<path fill="#1fe449" fill-rule="evenodd" stroke="#000000" stroke-width="6" stroke-linecap="round" stroke-linejoin="round" d="M 1212.823 942.138 C 1232.615 938.864 1317.603 836.225 1353.486 834.759 C 1379.913 833.679 1452.891 904.327 1465.960 900.602 C 1477.900 897.199 1523.670 796.827 1523.504 796.356 C 1522.704 794.090 1100.518 853.535 954.380 855.625 C 814.645 857.623 408.819 814.980 408.764 814.976 C 408.777 814.986 511.904 908.410 535.402 914.230 C 561.460 920.684 710.647 880.786 710.664 880.782 C 710.682 880.792 836.709 973.619 884.258 975.258 C 931.458 976.885 1015.517 896.048 1062.686 893.693 C 1100.616 891.799 1195.178 945.057 1212.823 942.138 Z"/>
</g>
<g id="Cheese">
<path fill="#fef500" fill-rule="evenodd" stroke="#000000" stroke-width="6" stroke-linecap="round" stroke-linejoin="round" d="M 923.779 915.250 C 923.838 915.238 1514.740 793.033 1514.799 793.020 C 1514.729 793.026 809.766 851.418 809.695 851.424 C 809.656 851.420 420.318 812.186 420.279 812.182 C 420.330 812.192 923.728 915.240 923.779 915.250 Z"/>
</g>
<g id="">
<path fill="#fffc00" fill-rule="evenodd" stroke="#1a1a1a" stroke-width="5" stroke-linecap="round" stroke-linejoin="round" d="M 662.921 500.407 C 656.190 495.114 649.291 492.053 642.236 491.233 C 638.957 490.944 635.679 490.654 632.400 490.364 C 632.835 493.283 633.270 496.198 633.704 499.108 C 634.273 502.664 634.640 505.567 634.806 507.819 C 635.087 511.647 635.152 516.400 635.001 522.070 C 634.891 526.801 634.782 531.521 634.673 536.230 C 635.282 536.230 636.221 536.254 637.488 536.301 C 638.798 536.348 639.780 536.372 640.434 536.372 C 651.543 536.371 659.755 534.764 665.074 531.544 C 667.419 530.074 669.561 528.153 671.500 525.779 C 673.642 523.117 674.654 520.856 674.534 518.998 C 674.105 512.365 670.238 506.166 662.921 500.407 M 694.565 582.756 C 693.360 584.191 691.874 584.908 690.107 584.908 C 688.470 584.908 686.894 584.168 685.379 582.687 C 670.102 567.497 653.462 557.219 635.508 551.920 C 636.022 556.516 636.535 561.102 637.047 565.679 C 637.494 570.269 637.941 574.850 638.387 579.421 C 638.537 581.460 638.038 583.150 636.887 584.491 C 635.784 585.879 634.307 586.572 632.455 586.572 C 630.603 586.572 629.000 585.879 627.645 584.491 C 626.335 583.150 625.601 581.460 625.445 579.421 C 625.163 575.755 624.570 570.292 623.664 563.018 C 622.795 555.672 622.216 550.135 621.930 546.420 C 621.596 542.086 621.533 535.615 621.742 526.990 C 621.952 518.331 621.891 511.815 621.558 507.460 C 621.371 505.015 620.874 501.391 620.066 496.582 C 619.301 491.763 618.823 488.117 618.634 485.651 C 618.422 482.892 618.941 480.469 620.194 478.383 C 621.676 475.809 623.907 474.642 626.885 474.885 C 632.242 475.348 637.598 475.810 642.953 476.270 C 649.061 477.096 654.273 478.723 658.586 481.148 C 677.115 491.546 686.806 504.176 687.721 518.998 C 688.167 526.230 685.552 532.610 679.888 538.144 C 675.341 542.581 669.539 545.949 662.479 548.255 C 676.500 556.094 687.098 564.325 694.290 572.944 C 695.504 574.432 696.161 576.011 696.262 577.682 C 696.380 579.630 695.814 581.321 694.565 582.756 Z"/>
<path fill="#fffc00" fill-rule="evenodd" stroke="#1a1a1a" stroke-width="5" stroke-linecap="round" stroke-linejoin="round" d="M 786.658 488.698 C 786.041 488.698 785.354 488.577 784.596 488.335 C 777.057 486.014 769.824 484.853 762.904 484.853 C 759.290 484.853 755.362 485.216 751.121 485.942 C 746.881 486.667 742.331 487.779 737.473 489.277 C 738.026 492.414 738.349 494.921 738.443 496.799 C 738.777 503.480 738.861 512.627 738.698 524.211 C 748.218 523.213 757.742 522.214 767.270 521.213 C 775.668 520.261 780.830 519.785 782.754 519.785 C 784.678 519.785 786.323 520.452 787.686 521.785 C 789.049 523.117 789.774 524.900 789.860 527.133 C 790.027 531.449 788.115 533.864 784.125 534.385 C 778.958 534.883 773.793 535.379 768.630 535.875 C 758.610 536.869 748.595 537.861 738.585 538.853 C 738.579 542.203 738.588 545.384 738.609 548.396 C 738.672 551.356 738.768 554.125 738.899 556.703 C 739.420 567.031 740.418 573.084 741.891 574.896 C 742.992 576.197 746.413 576.847 752.154 576.847 C 754.831 576.847 758.842 576.777 764.188 576.638 C 769.576 576.452 773.630 576.359 776.350 576.359 C 777.213 576.359 778.481 576.220 780.153 575.942 C 781.824 575.617 783.069 575.454 783.890 575.454 C 788.466 575.454 790.849 577.867 791.036 582.687 C 791.187 586.572 789.448 588.904 785.821 589.689 C 781.811 590.565 773.073 591.003 759.606 591.003 C 746.269 591.003 737.610 589.112 733.625 585.324 C 729.270 581.205 726.691 571.689 725.889 556.703 C 725.729 553.703 725.618 550.417 725.557 546.843 C 725.496 543.264 725.464 539.396 725.460 535.237 C 724.922 534.148 724.620 532.989 724.554 531.757 C 724.468 530.146 724.805 528.699 725.566 527.418 C 725.709 513.655 725.606 503.432 725.255 496.799 C 725.161 495.017 724.803 492.414 724.181 488.987 C 723.556 485.507 723.195 482.868 723.099 481.075 C 722.792 475.299 724.848 472.405 729.268 472.405 C 731.125 472.405 732.752 473.111 734.149 474.521 C 739.374 472.965 744.311 471.797 748.960 471.017 C 753.655 470.238 758.082 469.848 762.239 469.848 C 772.986 469.848 781.622 471.261 788.142 474.083 C 791.152 475.396 792.720 477.728 792.845 481.075 C 792.918 483.013 792.410 484.732 791.321 486.232 C 790.105 487.876 788.551 488.698 786.658 488.698 Z"/>
<path fill="#fffc00" fill-rule="evenodd" stroke="#1a1a1a" stroke-width="5" stroke-linecap="round" stroke-linejoin="round" d="M 826.956 566.798 C 826.853 564.839 827.411 563.251 828.630 562.037 C 829.892 560.774 831.455 560.143 833.318 560.143 C 835.441 560.143 837.341 561.453 839.016 564.068 C 841.321 567.614 843.353 570.013 845.116 571.270 C 848.856 573.874 854.222 575.175 861.218 575.175 C 867.911 575.175 874.099 573.618 879.787 570.502 C 887.069 566.495 890.658 560.915 890.544 553.750 C 890.450 547.831 887.266 543.146 880.983 539.703 C 875.658 536.726 869.113 535.118 861.350 534.882 C 854.457 534.598 848.554 532.965 843.635 529.980 C 837.333 526.135 834.075 520.618 833.869 513.416 C 833.626 504.895 837.843 497.088 846.541 490.002 C 854.879 483.280 863.603 479.911 872.693 479.911 C 876.973 479.911 881.819 480.712 887.228 482.311 C 894.403 484.393 898.011 487.054 898.056 490.291 C 898.115 494.536 896.167 496.655 892.210 496.655 C 890.452 496.655 887.366 496.149 882.952 495.138 C 878.535 494.078 875.117 493.572 872.698 493.620 C 865.837 493.716 860.050 495.571 855.343 499.181 C 850.513 502.880 848.168 507.364 848.301 512.627 C 848.402 516.591 851.709 519.380 858.219 520.999 C 860.637 521.618 865.305 522.189 872.221 522.713 C 882.243 523.521 890.119 526.943 895.839 532.965 C 901.057 538.451 903.712 545.125 903.813 552.975 C 903.956 564.115 899.317 572.968 889.918 579.560 C 881.781 585.255 872.296 588.096 861.446 588.096 C 853.567 588.096 846.314 586.480 839.677 583.242 C 831.543 579.259 827.299 573.781 826.956 566.798 Z"/>
<path fill="#fffc00" fill-rule="evenodd" stroke="#1a1a1a" stroke-width="5" stroke-linecap="round" stroke-linejoin="round" d="M 979.506 586.918 C 966.113 586.918 956.118 582.780 949.502 574.478 C 944.122 567.777 940.705 557.827 939.255 544.583 C 938.573 538.593 938.187 526.587 938.097 508.466 C 938.064 501.752 938.169 496.318 938.413 492.173 C 938.656 487.779 939.038 484.708 939.559 482.965 C 940.646 479.426 942.625 477.655 945.494 477.655 C 949.556 477.655 951.595 481.754 951.610 489.929 C 951.636 504.056 951.663 518.094 951.689 532.041 C 951.743 560.564 960.926 574.687 979.237 574.687 C 996.469 574.687 1005.331 550.863 1005.833 502.424 C 1005.851 500.599 1005.876 498.243 1005.906 495.354 C 1005.892 492.462 1005.889 490.532 1005.899 489.567 C 1005.930 486.571 1006.443 483.934 1007.437 481.657 C 1008.704 478.747 1010.552 477.290 1012.981 477.290 C 1017.396 477.291 1019.559 480.615 1019.470 487.248 C 1019.444 489.229 1019.426 492.221 1019.416 496.221 C 1019.363 500.214 1019.323 503.192 1019.296 505.159 C 1018.562 560.003 1005.303 586.918 979.506 586.918 Z"/>
<path fill="#fffc00" fill-rule="evenodd" stroke="#1a1a1a" stroke-width="5" stroke-linecap="round" stroke-linejoin="round" d="M 1148.626 589.896 C 1146.302 589.896 1144.442 588.604 1143.044 586.017 C 1141.845 583.798 1140.835 580.093 1140.014 574.896 C 1139.401 570.898 1138.786 566.891 1138.172 562.878 C 1136.699 555.391 1134.540 538.782 1131.672 512.842 C 1126.748 527.205 1121.856 541.473 1116.996 555.649 C 1115.558 560.097 1114.123 564.535 1112.692 568.965 C 1110.953 574.223 1109.186 578.517 1107.390 581.853 C 1105.461 585.370 1102.969 587.126 1099.912 587.126 C 1097.371 587.126 1095.415 585.647 1094.042 582.687 C 1093.153 580.742 1092.365 578.262 1091.680 575.245 C 1091.131 572.665 1090.582 570.083 1090.032 567.497 C 1086.139 550.980 1082.771 533.154 1079.935 513.989 C 1079.031 518.260 1078.130 522.523 1077.230 526.777 C 1074.089 539.278 1070.966 551.709 1067.860 564.068 C 1067.407 568.406 1066.170 574.804 1064.154 583.242 C 1062.776 586.849 1060.602 588.650 1057.632 588.650 C 1055.522 588.650 1053.861 587.842 1052.647 586.225 C 1051.599 584.839 1051.097 583.127 1051.139 581.089 C 1051.302 573.340 1052.995 563.789 1056.233 552.413 C 1058.834 542.935 1061.446 533.415 1064.069 523.854 C 1065.515 516.353 1066.967 508.825 1068.423 501.271 C 1070.620 490.629 1072.845 483.643 1075.090 480.348 C 1076.929 477.533 1079.152 476.125 1081.758 476.125 C 1084.629 476.125 1086.719 477.922 1088.029 481.512 C 1089.623 485.821 1091.215 494.584 1092.799 507.747 C 1094.644 523.450 1097.719 540.316 1102.010 558.318 C 1109.040 540.222 1115.280 521.213 1120.726 501.271 C 1121.511 497.762 1122.299 494.247 1123.089 490.726 C 1124.039 486.474 1125.201 483.038 1126.578 480.421 C 1128.434 476.829 1130.866 475.032 1133.870 475.032 C 1137.669 475.032 1140.399 479.063 1142.056 487.103 C 1142.647 489.857 1143.271 495.547 1143.925 504.152 C 1145.605 525.732 1148.032 543.995 1151.203 559.021 C 1152.087 563.041 1152.970 567.055 1153.853 571.060 C 1155.208 577.473 1155.851 581.414 1155.784 582.895 C 1155.694 584.885 1154.909 586.549 1153.428 587.888 C 1151.991 589.227 1150.391 589.896 1148.626 589.896 Z"/>
<path fill="#fffc00" fill-rule="evenodd" stroke="#1a1a1a" stroke-width="5" stroke-linecap="round" stroke-linejoin="round" d="M 1238.601 456.360 C 1237.283 457.585 1235.937 458.197 1234.562 458.197 C 1232.966 458.197 1231.588 457.512 1230.429 456.139 C 1229.314 454.766 1228.809 453.196 1228.915 451.429 C 1229.016 449.758 1229.800 448.159 1231.271 446.633 C 1233.308 444.565 1236.463 440.644 1240.741 434.861 C 1243.952 430.601 1247.458 427.053 1251.257 424.220 C 1252.525 423.275 1253.740 422.803 1254.902 422.803 C 1256.511 422.803 1257.871 423.524 1258.981 424.966 C 1260.095 426.357 1260.592 427.946 1260.473 429.733 C 1260.341 431.716 1259.378 433.450 1257.585 434.935 C 1254.284 437.705 1251.045 441.286 1247.870 445.673 C 1244.553 450.298 1241.464 453.859 1238.601 456.360 M 1261.923 486.232 C 1260.534 487.876 1258.893 488.698 1257.000 488.698 C 1256.383 488.698 1255.709 488.577 1254.976 488.335 C 1247.683 486.014 1240.573 484.853 1233.653 484.853 C 1230.039 484.853 1226.072 485.216 1221.754 485.942 C 1217.438 486.667 1212.770 487.779 1207.753 489.277 C 1207.974 492.414 1208.032 494.921 1207.927 496.799 C 1207.553 503.480 1206.670 512.627 1205.281 524.211 C 1214.906 523.213 1224.535 522.214 1234.170 521.213 C 1242.668 520.261 1247.881 519.785 1249.805 519.785 C 1251.729 519.785 1253.303 520.452 1254.526 521.785 C 1255.748 523.117 1256.283 524.900 1256.133 527.133 C 1255.843 531.449 1253.675 533.865 1249.631 534.385 C 1244.411 534.882 1239.193 535.379 1233.977 535.875 C 1223.852 536.869 1213.732 537.861 1203.617 538.853 C 1203.257 542.203 1202.928 545.384 1202.631 548.396 C 1202.381 551.356 1202.184 554.125 1202.042 556.703 C 1201.470 567.031 1201.826 573.084 1203.108 574.896 C 1204.071 576.197 1207.424 576.847 1213.165 576.847 C 1215.841 576.847 1219.859 576.777 1225.220 576.638 C 1230.628 576.452 1234.692 576.359 1237.411 576.359 C 1238.275 576.359 1239.557 576.220 1241.259 575.942 C 1242.964 575.617 1244.227 575.454 1245.047 575.454 C 1249.624 575.454 1251.751 577.867 1251.428 582.687 C 1251.168 586.572 1249.182 588.904 1245.472 589.689 C 1241.369 590.565 1232.585 591.003 1219.118 591.003 C 1205.780 591.003 1197.321 589.112 1193.737 585.324 C 1189.819 581.205 1188.247 571.689 1189.032 556.703 C 1189.189 553.703 1189.426 550.417 1189.744 546.843 C 1190.062 543.264 1190.438 539.396 1190.875 535.237 C 1190.452 534.149 1190.273 532.989 1190.338 531.757 C 1190.422 530.146 1190.912 528.699 1191.809 527.418 C 1193.409 513.655 1194.389 503.432 1194.740 496.799 C 1194.834 495.017 1194.752 492.414 1194.492 488.987 C 1194.235 485.507 1194.154 482.868 1194.248 481.075 C 1194.552 475.299 1196.915 472.405 1201.334 472.405 C 1203.191 472.405 1204.744 473.111 1205.992 474.521 C 1211.381 472.965 1216.443 471.797 1221.174 471.017 C 1225.951 470.238 1230.419 469.848 1234.577 469.848 C 1245.323 469.848 1253.810 471.261 1260.031 474.083 C 1262.902 475.396 1264.223 477.728 1263.994 481.075 C 1263.862 483.013 1263.171 484.732 1261.923 486.232 Z"/>
<path fill="#fffc00" fill-rule="evenodd" stroke="#1a1a1a" stroke-width="5" stroke-linecap="round" stroke-linejoin="round" d="M 509.157 709.682 C 508.920 707.849 509.347 706.364 510.441 705.228 C 511.573 704.047 513.040 703.457 514.842 703.457 C 516.896 703.457 518.826 704.682 520.631 707.129 C 523.110 710.446 525.245 712.691 527.038 713.867 C 530.840 716.303 536.123 717.521 542.889 717.521 C 549.364 717.521 555.239 716.064 560.521 713.148 C 567.280 709.399 570.357 704.179 569.739 697.476 C 569.229 691.940 565.817 687.558 559.497 684.337 C 554.137 681.554 547.693 680.050 540.170 679.829 C 533.485 679.564 527.660 678.036 522.694 675.245 C 516.328 671.650 512.789 666.492 512.083 659.758 C 511.248 651.793 514.775 644.496 522.685 637.873 C 530.271 631.592 538.466 628.444 547.253 628.444 C 551.390 628.444 556.131 629.192 561.473 630.687 C 568.556 632.632 572.232 635.119 572.505 638.144 C 572.863 642.110 571.129 644.091 567.305 644.091 C 565.605 644.091 562.586 643.618 558.247 642.673 C 553.902 641.682 550.561 641.209 548.227 641.254 C 541.601 641.344 536.137 643.078 531.841 646.452 C 527.433 649.910 525.482 654.101 525.982 659.021 C 526.358 662.726 529.753 665.334 536.162 666.848 C 538.544 667.426 543.098 667.960 549.822 668.450 C 559.570 669.206 567.428 672.405 573.386 678.037 C 578.822 683.167 581.863 689.409 582.517 696.752 C 583.446 707.173 579.587 715.455 570.963 721.624 C 563.495 726.953 554.520 729.612 544.024 729.612 C 536.401 729.612 529.270 728.099 522.622 725.070 C 514.471 721.342 509.980 716.216 509.157 709.682 Z"/>
<path fill="#fffc00" fill-rule="evenodd" stroke="#1a1a1a" stroke-width="5" stroke-linecap="round" stroke-linejoin="round" d="M 666.427 678.169 C 664.125 669.607 661.814 661.009 659.493 652.376 C 654.166 662.682 648.864 672.938 643.588 683.145 C 648.583 681.775 656.195 680.117 666.427 678.169 M 691.175 725.979 C 689.964 727.234 688.525 727.861 686.858 727.861 C 683.024 727.861 679.350 722.752 675.822 712.495 C 674.470 708.570 672.642 701.684 670.332 691.808 C 666.088 692.424 660.556 693.523 653.738 695.105 C 648.242 696.313 642.749 697.520 637.259 698.726 C 635.601 704.463 632.667 712.821 628.470 723.770 C 627.327 726.195 625.610 727.407 623.318 727.407 C 621.651 727.407 620.100 726.780 618.665 725.525 C 617.270 724.269 616.496 722.708 616.344 720.843 C 616.174 718.759 618.684 710.816 623.901 696.949 C 623.097 695.808 622.635 694.490 622.516 692.995 C 622.232 689.431 624.111 687.139 628.155 686.125 C 632.224 676.663 637.471 665.735 643.911 653.317 C 652.742 636.270 658.421 627.696 660.896 627.696 C 664.266 627.696 666.740 630.188 668.314 635.164 C 670.167 642.742 672.014 650.292 673.855 657.814 C 678.035 673.294 682.186 688.660 686.308 703.916 C 687.724 707.369 689.139 710.817 690.552 714.258 C 691.988 717.781 692.742 720.127 692.817 721.298 C 692.935 723.163 692.388 724.723 691.175 725.979 Z"/>
<path fill="#fffc00" fill-rule="evenodd" stroke="#1a1a1a" stroke-width="5" stroke-linecap="round" stroke-linejoin="round" d="M 815.365 711.449 C 815.437 713.540 815.221 717.021 814.721 721.884 C 814.205 726.261 812.052 728.445 808.260 728.445 C 805.969 728.445 803.182 726.888 799.896 723.770 C 782.215 707.019 761.520 682.614 737.645 650.291 C 737.803 655.377 737.961 660.451 738.118 665.512 C 738.319 670.585 738.518 675.644 738.718 680.692 C 738.909 684.359 739.258 689.849 739.764 697.146 C 740.309 704.419 740.677 709.879 740.867 713.540 C 741.474 725.221 739.611 731.038 735.280 731.038 C 732.990 731.038 731.138 730.282 729.722 728.769 C 728.441 727.429 727.748 725.827 727.645 723.965 C 727.545 722.144 727.518 719.389 727.564 715.694 C 727.653 711.993 727.647 709.224 727.546 707.391 C 727.397 704.681 727.258 700.633 727.129 695.237 C 726.998 689.783 726.857 685.683 726.707 682.946 C 726.546 680.028 726.241 675.622 725.790 669.717 C 725.335 663.752 725.026 659.289 724.864 656.339 C 724.709 653.518 724.224 649.326 723.407 643.754 C 722.585 638.121 722.095 633.876 721.937 631.026 C 721.822 628.943 722.549 627.039 724.118 625.315 C 725.732 623.589 727.607 622.726 729.742 622.726 C 732.006 622.726 734.941 625.360 738.542 630.618 C 749.982 647.440 760.144 661.321 769.060 672.316 C 779.617 685.286 791.052 697.607 803.363 709.290 C 803.419 707.413 803.316 704.638 803.054 700.961 C 802.888 698.200 802.722 695.435 802.557 692.665 C 801.836 673.270 800.538 657.702 798.659 646.047 C 798.445 644.878 797.782 642.516 796.669 638.956 C 795.700 635.887 795.183 633.492 795.117 631.773 C 794.915 626.517 797.077 623.885 801.604 623.884 C 809.033 623.884 813.250 638.572 814.244 667.649 C 814.413 672.583 814.601 679.940 814.808 689.695 C 815.013 699.362 815.199 706.605 815.365 711.449 Z"/>
<path fill="#fffc00" fill-rule="evenodd" stroke="#1a1a1a" stroke-width="5" stroke-linecap="round" stroke-linejoin="round" d="M 911.789 687.778 C 911.648 675.311 905.012 664.576 891.842 655.600 C 887.468 652.600 877.380 647.440 861.541 640.106 C 861.796 646.587 862.050 653.049 862.304 659.490 C 862.513 665.891 862.723 672.272 862.931 678.634 C 862.870 690.686 862.810 702.669 862.749 714.585 C 863.044 714.715 863.490 714.998 864.085 715.433 C 867.818 717.999 872.481 719.280 878.076 719.280 C 887.596 719.280 894.504 717.760 898.803 714.715 C 902.819 711.841 905.990 707.980 908.317 703.129 C 910.691 698.222 911.850 693.105 911.789 687.778 M 919.628 709.028 C 916.350 715.868 911.837 721.342 906.089 725.459 C 899.692 730.044 890.464 732.333 878.393 732.333 C 875.354 732.333 871.868 731.837 867.933 730.844 C 863.201 729.677 859.624 728.164 857.204 726.304 C 856.995 726.304 856.787 726.304 856.578 726.304 C 854.786 726.304 853.269 725.654 852.027 724.355 C 850.784 723.055 850.137 721.472 850.089 719.606 C 849.969 715.042 849.980 708.199 850.119 699.055 C 850.300 689.827 850.331 682.880 850.211 678.235 C 850.077 673.049 849.771 665.289 849.291 654.929 C 848.850 644.473 848.561 636.587 848.424 631.298 C 848.376 629.441 849.221 627.492 850.961 625.451 C 852.703 623.408 854.471 622.385 856.265 622.385 C 857.290 622.385 860.743 623.907 866.616 626.948 C 873.256 630.347 877.086 632.225 878.116 632.587 C 890.289 636.970 900.684 643.686 909.292 652.712 C 919.360 663.306 924.428 674.890 924.533 687.448 C 924.596 694.973 922.958 702.165 919.628 709.028 Z"/>
<path fill="#fffc00" fill-rule="evenodd" stroke="#1a1a1a" stroke-width="5" stroke-linecap="round" stroke-linejoin="round" d="M 1037.360 732.139 C 1035.445 732.139 1033.769 731.578 1032.332 730.455 C 1030.688 729.158 1029.881 727.559 1029.913 725.654 C 1028.080 720.409 1026.937 716.129 1026.488 712.821 C 1026.038 709.508 1024.529 700.085 1021.946 684.470 C 1019.967 672.560 1018.663 662.949 1018.043 655.667 C 1014.084 670.384 1009.905 682.769 1005.501 692.863 C 1000.432 704.485 997.146 713.540 995.628 720.062 C 996.120 721.060 996.362 722.036 996.354 722.990 C 996.337 724.940 995.490 726.542 993.812 727.797 C 992.303 728.964 990.591 729.547 988.675 729.547 C 983.052 729.547 980.253 726.931 980.278 721.689 C 979.644 718.933 979.009 716.173 978.374 713.409 C 976.136 702.713 973.886 691.962 971.626 681.156 C 968.910 670.162 964.237 654.302 957.569 633.469 C 957.270 632.474 957.120 631.569 957.120 630.754 C 957.117 626.540 959.357 624.429 963.840 624.430 C 966.615 624.430 968.746 626.041 970.232 629.260 C 970.996 630.890 972.538 635.571 974.854 643.281 C 977.329 651.412 979.787 661.165 982.225 672.516 C 984.216 682.306 986.199 692.050 988.173 701.750 C 992.743 690.862 997.337 677.527 1001.962 661.700 C 1004.815 651.995 1006.989 645.238 1008.476 641.457 C 1012.425 631.479 1016.220 626.472 1019.847 626.472 C 1022.835 626.472 1024.923 628.082 1026.110 631.298 C 1027.584 635.186 1028.990 644.428 1030.323 658.954 C 1031.048 666.269 1032.337 675.023 1034.184 685.198 C 1035.838 693.853 1037.487 702.472 1039.129 711.056 C 1045.018 696.971 1052.466 677.771 1061.522 653.317 C 1062.020 651.972 1063.183 647.732 1065.014 640.579 C 1066.378 635.299 1067.993 631.184 1069.859 628.240 C 1071.459 625.746 1073.498 624.497 1075.974 624.497 C 1080.286 624.497 1082.378 626.767 1082.249 631.298 C 1082.227 632.067 1081.481 634.328 1080.013 638.076 C 1079.093 640.512 1078.176 642.944 1077.260 645.372 C 1075.982 649.372 1074.708 653.362 1073.437 657.345 C 1066.741 673.427 1060.097 689.387 1053.503 705.228 C 1051.673 710.424 1048.565 717.955 1044.191 727.797 C 1042.634 730.693 1040.357 732.139 1037.360 732.139 Z"/>
<path fill="#fffc00" fill-rule="evenodd" stroke="#1a1a1a" stroke-width="5" stroke-linecap="round" stroke-linejoin="round" d="M 1162.623 643.416 C 1159.903 643.416 1156.495 643.123 1152.397 642.538 C 1148.995 642.066 1145.593 641.593 1142.190 641.119 C 1140.660 654.190 1139.650 666.603 1139.154 678.368 C 1139.024 681.465 1138.947 685.286 1138.924 689.827 C 1138.900 694.358 1138.824 698.156 1138.694 701.224 C 1138.521 705.337 1138.216 709.072 1137.782 712.429 C 1144.372 712.342 1150.963 712.255 1157.555 712.168 C 1159.312 712.168 1160.745 712.821 1161.853 714.128 C 1163.005 715.390 1163.535 716.956 1163.445 718.824 C 1163.352 720.735 1162.670 722.340 1161.398 723.640 C 1160.170 724.897 1158.681 725.525 1156.930 725.525 C 1154.595 725.525 1151.090 725.589 1146.415 725.719 C 1141.742 725.806 1138.238 725.849 1135.903 725.849 C 1133.152 725.849 1129.009 726.239 1123.477 727.018 C 1117.986 727.840 1113.846 728.251 1111.054 728.251 C 1109.304 728.251 1107.848 727.602 1106.684 726.304 C 1105.561 725.048 1105.031 723.488 1105.095 721.624 C 1105.159 719.758 1105.799 718.172 1107.014 716.868 C 1108.271 715.564 1109.778 714.911 1111.533 714.911 C 1114.250 714.911 1118.761 714.454 1125.067 713.540 C 1125.623 710.010 1125.991 705.971 1126.170 701.421 C 1126.289 698.397 1126.286 694.709 1126.163 690.355 C 1126.083 685.948 1126.102 682.239 1126.220 679.232 C 1126.620 668.984 1127.716 656.115 1129.517 640.579 C 1126.748 640.670 1123.980 640.760 1121.213 640.849 C 1118.445 640.917 1115.679 640.985 1112.912 641.052 C 1111.083 641.052 1109.575 640.398 1108.386 639.091 C 1107.197 637.783 1106.637 636.112 1106.707 634.079 C 1106.850 629.871 1108.934 627.560 1112.959 627.152 C 1116.428 626.789 1122.900 626.608 1132.373 626.608 C 1140.865 626.608 1151.468 627.583 1164.175 629.532 C 1167.941 630.120 1169.720 632.542 1169.513 636.790 C 1169.410 638.910 1168.604 640.601 1167.098 641.862 C 1165.772 642.898 1164.281 643.416 1162.623 643.416 Z"/>
<path fill="#fffc00" fill-rule="evenodd" stroke="#1a1a1a" stroke-width="5" stroke-linecap="round" stroke-linejoin="round" d="M 1260.353 651.771 C 1257.638 651.771 1255.718 650.089 1254.591 646.721 C 1253.599 643.843 1252.614 642.088 1251.636 641.457 C 1250.776 640.962 1248.582 640.714 1245.052 640.714 C 1238.884 640.714 1231.720 645.710 1223.587 655.667 C 1212.626 668.961 1206.828 681.488 1206.145 693.259 C 1205.816 698.923 1207.273 703.785 1210.510 707.849 C 1213.817 712.037 1217.976 714.128 1222.992 714.128 C 1227.298 714.128 1231.700 712.974 1236.200 710.664 C 1238.713 709.355 1242.610 706.779 1247.897 702.932 C 1250.413 701.092 1252.280 700.173 1253.496 700.173 C 1255.300 700.173 1256.759 700.896 1257.873 702.341 C 1258.990 703.741 1259.486 705.315 1259.362 707.063 C 1259.223 709.028 1258.306 710.751 1256.612 712.233 C 1244.882 722.405 1233.412 727.472 1222.160 727.472 C 1213.534 727.472 1206.443 724.030 1200.873 717.130 C 1195.482 710.424 1193.034 702.472 1193.541 693.259 C 1194.365 678.302 1201.225 662.860 1214.187 646.924 C 1225.078 633.537 1235.691 626.812 1245.975 626.812 C 1248.066 626.812 1249.936 626.925 1251.584 627.152 C 1253.236 627.334 1254.686 627.651 1255.935 628.104 C 1257.588 625.791 1259.610 624.634 1262.001 624.634 C 1264.947 624.634 1266.657 626.699 1267.131 630.822 C 1267.550 634.486 1267.569 638.978 1267.188 644.293 C 1267.056 646.137 1266.474 647.754 1265.440 649.146 C 1264.170 650.896 1262.474 651.771 1260.353 651.771 Z"/>
<path fill="#fffc00" fill-rule="evenodd" stroke="#1a1a1a" stroke-width="5" stroke-linecap="round" stroke-linejoin="round" d="M 1380.738 632.383 C 1379.913 634.283 1379.322 637.060 1378.966 640.714 C 1378.834 642.065 1378.680 644.068 1378.506 646.721 C 1378.333 649.371 1378.180 651.367 1378.049 652.712 C 1377.612 657.188 1376.581 663.841 1374.961 672.649 C 1373.390 681.421 1372.393 687.999 1371.965 692.402 C 1371.640 695.742 1371.385 700.742 1371.199 707.391 C 1371.014 714.019 1370.758 718.998 1370.433 722.340 C 1370.259 724.117 1369.530 725.611 1368.245 726.823 C 1367.002 728.034 1365.527 728.640 1363.819 728.640 C 1362.153 728.640 1360.794 728.034 1359.742 726.823 C 1358.690 725.611 1358.248 724.117 1358.416 722.340 C 1358.733 718.998 1358.974 714.019 1359.140 707.391 C 1359.307 700.742 1359.548 695.742 1359.863 692.402 C 1360.166 689.188 1360.579 685.926 1361.102 682.615 C 1353.888 682.747 1344.878 683.873 1334.081 685.992 C 1325.087 687.801 1316.102 689.607 1307.125 691.412 C 1306.801 695.369 1305.964 700.983 1304.617 708.243 C 1303.278 715.433 1302.449 720.995 1302.128 724.940 C 1301.984 726.715 1301.279 728.207 1300.015 729.418 C 1298.789 730.671 1297.323 731.297 1295.616 731.297 C 1293.909 731.297 1292.522 730.671 1291.455 729.418 C 1290.425 728.207 1289.980 726.715 1290.119 724.940 C 1290.480 720.344 1291.375 713.475 1292.807 704.310 C 1294.291 695.061 1295.220 688.087 1295.589 683.410 C 1295.781 680.979 1295.987 677.306 1296.207 672.383 C 1296.427 667.449 1296.636 663.729 1296.833 661.232 C 1297.111 657.703 1297.742 652.398 1298.726 645.305 C 1299.718 638.144 1300.356 632.768 1300.639 629.192 C 1300.790 627.288 1301.492 625.701 1302.746 624.430 C 1304.043 623.158 1305.567 622.522 1307.318 622.522 C 1309.069 622.522 1310.470 623.158 1311.519 624.430 C 1312.611 625.701 1313.078 627.288 1312.922 629.192 C 1312.625 632.813 1311.946 638.234 1310.888 645.440 C 1309.880 652.577 1309.230 657.926 1308.938 661.499 C 1308.604 667.138 1308.271 672.761 1307.940 678.368 C 1317.133 676.575 1326.334 674.780 1335.544 672.982 C 1346.586 670.851 1355.833 669.739 1363.277 669.650 C 1364.344 663.284 1365.490 653.653 1366.716 640.714 C 1367.041 637.286 1367.903 633.808 1369.304 630.279 C 1371.174 625.428 1373.392 622.999 1375.955 622.999 C 1377.578 622.999 1378.968 623.635 1380.125 624.906 C 1381.286 626.132 1381.773 627.696 1381.586 629.600 C 1381.520 630.279 1381.237 631.207 1380.738 632.383 Z"/>
</g>
</svg>
