<?xml version="1.0" encoding="utf-8"?>
<!-- Generator: Moho 12.5 build 22438 -->
<!DOCTYPE svg PUBLIC "-//W3C//DTD SVG 1.1//EN" "http://www.w3.org/Graphics/SVG/1.1/DTD/svg11.dtd">
<svg version="1.1" id="Frame_0" xmlns="http://www.w3.org/2000/svg" xmlns:xlink="http://www.w3.org/1999/xlink" width="1920px" height="1080px">
<g id="Meat">
<path fill="#9a5a16" fill-rule="evenodd" stroke="#000000" stroke-width="6" stroke-linecap="round" stroke-linejoin="round" d="M 426.997 364.805 C 427.051 364.810 964.170 407.457 964.224 407.461 C 964.278 407.460 1501.203 395.275 1501.257 395.274 C 1501.255 395.296 1474.292 541.314 1475.856 614.042 C 1477.292 680.871 1507.348 813.930 1507.351 813.950 C 1507.296 813.958 958.402 899.254 958.347 899.262 C 958.294 899.254 424.004 813.958 423.950 813.950 C 423.953 813.928 449.762 666.447 450.475 594.987 C 451.224 520.025 426.999 364.828 426.997 364.805 Z"/>
</g>
<g id="Tomato">
<path fill="#ff0000" fill-rule="evenodd" stroke="#000000" stroke-width="6" stroke-linecap="round" stroke-linejoin="round" d="M 424.432 387.678 C 424.540 387.678 1501.767 387.678 1501.874 387.678 C 1501.874 387.686 1501.874 459.906 1501.874 459.913 C 1501.819 459.918 1047.914 510.424 950.231 510.163 C 857.086 509.915 424.485 459.918 424.432 459.913 C 424.432 459.906 424.432 387.686 424.432 387.678 Z"/>
</g>
<g id="Buns">
<path fill="#ffd800" fill-rule="evenodd" stroke="#000000" stroke-width="6" stroke-linecap="round" stroke-linejoin="round" d="M 967.198 61.050 C 1393.228 61.050 1589.804 251.833 1522.439 377.409 C 1512.618 395.717 1493.553 391.315 1432.051 400.006 C 801.551 489.096 477.022 394.599 476.926 394.599 C 476.920 394.597 419.227 390.513 411.956 377.409 C 342.815 252.803 541.167 61.050 967.198 61.050 Z"/>
<path fill="#ffd800" fill-rule="evenodd" stroke="#000000" stroke-width="6" stroke-linecap="round" stroke-linejoin="round" d="M 938.015 887.042 C 1145.005 885.040 1247.092 857.696 1247.123 857.693 C 1247.151 857.688 1517.127 785.396 1526.887 800.674 C 1532.942 810.154 1450.315 960.396 1450.307 960.412 C 1450.258 960.417 1287.422 1005.066 956.859 1009.527 C 633.756 1013.888 473.461 974.746 473.413 974.743 C 473.407 974.727 405.234 827.715 411.956 819.518 C 419.458 810.370 593.701 860.423 593.720 860.427 C 593.754 860.430 707.810 889.268 938.015 887.042 Z"/>
</g>
<g id="Lettuce">
<path fill="#1fe449" fill-rule="evenodd" stroke="#000000" stroke-width="6" stroke-linecap="round" stroke-linejoin="round" d="M 1212.823 942.138 C 1232.615 938.864 1317.603 836.225 1353.486 834.759 C 1379.913 833.679 1452.891 904.327 1465.960 900.602 C 1477.900 897.199 1523.670 796.827 1523.504 796.356 C 1522.704 794.090 1100.518 853.535 954.380 855.625 C 814.645 857.623 408.819 814.980 408.764 814.976 C 408.777 814.986 511.904 908.410 535.402 914.230 C 561.460 920.684 710.647 880.786 710.664 880.782 C 710.682 880.792 836.709 973.619 884.258 975.258 C 931.458 976.885 1015.517 896.048 1062.686 893.693 C 1100.616 891.799 1195.178 945.057 1212.823 942.138 Z"/>
</g>
<g id="">
<path fill="#fffc00" fill-rule="evenodd" stroke="#1a1a1a" stroke-width="5" stroke-linecap="round" stroke-linejoin="round" d="M 683.478 558.219 C 677.803 553.430 671.593 550.675 664.833 549.939 C 661.676 549.680 658.521 549.420 655.367 549.159 C 655.227 551.781 655.088 554.408 654.948 557.041 C 654.814 560.270 654.609 562.918 654.330 564.978 C 653.856 568.495 652.980 572.883 651.701 578.154 C 650.642 582.581 649.580 587.024 648.513 591.485 C 649.128 591.485 650.068 591.507 651.336 591.552 C 652.647 591.597 653.632 591.619 654.291 591.619 C 665.488 591.619 674.066 590.093 680.013 587.046 C 682.635 585.660 685.130 583.851 687.497 581.623 C 690.109 579.132 691.515 577.023 691.719 575.294 C 692.443 569.155 689.688 563.465 683.478 558.219 M 700.960 637.045 C 699.455 638.494 697.783 639.220 695.945 639.220 C 694.242 639.220 692.737 638.471 691.430 636.975 C 678.449 621.796 663.373 611.696 646.134 606.541 C 645.703 611.010 645.270 615.496 644.835 619.999 C 644.329 624.544 643.821 629.106 643.311 633.686 C 643.032 635.737 642.152 637.442 640.668 638.798 C 639.220 640.203 637.531 640.906 635.602 640.906 C 633.674 640.906 632.157 640.203 631.055 638.798 C 629.991 637.442 629.605 635.737 629.895 633.686 C 630.415 630.011 631.008 624.567 631.670 617.378 C 632.379 610.188 632.987 604.813 633.496 601.228 C 634.086 597.068 635.401 590.901 637.430 582.759 C 639.444 574.675 640.728 568.649 641.291 564.649 C 641.606 562.414 641.854 559.113 642.036 554.755 C 642.260 550.415 642.528 547.149 642.839 544.948 C 643.186 542.493 644.176 540.344 645.809 538.500 C 647.756 536.230 650.148 535.204 652.989 535.417 C 658.095 535.825 663.203 536.231 668.314 536.636 C 674.093 537.364 678.864 538.800 682.631 540.946 C 698.945 550.220 706.395 561.648 704.864 575.294 C 704.107 582.046 700.408 588.053 693.748 593.305 C 688.369 597.542 681.880 600.776 674.286 602.997 C 687.112 610.599 696.489 618.665 702.386 627.205 C 703.382 628.688 703.789 630.266 703.604 631.940 C 703.389 633.895 702.508 635.597 700.960 637.045 Z"/>
<path fill="#fffc00" fill-rule="evenodd" stroke="#1a1a1a" stroke-width="5" stroke-linecap="round" stroke-linejoin="round" d="M 806.549 547.667 C 805.946 547.667 805.286 547.559 804.569 547.343 C 797.441 545.271 790.507 544.237 783.755 544.237 C 780.229 544.237 776.353 544.560 772.128 545.207 C 767.899 545.854 763.315 546.846 758.373 548.186 C 758.508 551.000 758.501 553.256 758.349 554.951 C 757.807 561.014 756.687 569.397 754.980 580.154 C 764.629 579.221 774.269 578.288 783.903 577.355 C 792.390 576.469 797.591 576.025 799.510 576.025 C 801.429 576.025 803.000 576.646 804.223 577.888 C 805.448 579.132 805.991 580.799 805.849 582.893 C 805.575 586.957 803.403 589.241 799.333 589.734 C 794.077 590.206 788.819 590.677 783.560 591.148 C 773.341 592.091 763.114 593.036 752.880 593.980 C 752.415 597.181 751.984 600.232 751.590 603.133 C 751.242 605.995 750.954 608.682 750.727 611.193 C 749.808 621.335 749.978 627.344 751.243 629.152 C 752.198 630.452 755.646 631.103 761.587 631.103 C 764.357 631.103 768.517 631.033 774.066 630.893 C 779.664 630.708 783.869 630.615 786.683 630.615 C 787.576 630.615 788.904 630.476 790.666 630.197 C 792.430 629.872 793.737 629.709 794.585 629.709 C 799.317 629.709 801.519 632.126 801.189 636.975 C 800.922 640.906 798.852 643.276 794.979 644.074 C 790.692 644.968 781.514 645.415 767.447 645.415 C 753.515 645.415 744.748 643.487 741.156 639.641 C 737.250 635.481 736.019 625.954 737.441 611.193 C 737.722 608.272 738.095 605.085 738.560 601.636 C 739.023 598.197 739.555 594.498 740.154 590.542 C 739.771 589.510 739.635 588.412 739.748 587.248 C 739.894 585.727 740.441 584.365 741.388 583.160 C 743.485 570.345 744.813 560.970 745.386 554.951 C 745.539 553.343 745.547 551.000 745.409 547.927 C 745.275 544.819 745.285 542.472 745.437 540.881 C 745.926 535.781 748.309 533.240 752.588 533.240 C 754.386 533.240 755.870 533.859 757.041 535.097 C 762.302 533.731 767.227 532.706 771.819 532.024 C 776.452 531.343 780.776 531.002 784.795 531.002 C 795.183 531.002 803.390 532.238 809.425 534.712 C 812.218 535.866 813.519 537.921 813.325 540.881 C 813.212 542.601 812.553 544.129 811.347 545.465 C 810.001 546.933 808.401 547.668 806.549 547.667 Z"/>
<path fill="#fffc00" fill-rule="evenodd" stroke="#1a1a1a" stroke-width="5" stroke-linecap="round" stroke-linejoin="round" d="M 839.828 621.105 C 839.884 619.171 840.587 617.607 841.936 616.413 C 843.330 615.175 844.980 614.556 846.887 614.556 C 849.060 614.556 850.907 615.840 852.429 618.412 C 854.536 621.912 856.455 624.289 858.181 625.538 C 861.860 628.131 867.318 629.430 874.549 629.430 C 881.468 629.430 887.943 627.877 893.964 624.775 C 901.637 620.806 905.547 615.313 905.711 608.317 C 905.846 602.588 902.803 598.084 896.597 594.791 C 891.361 591.956 884.846 590.429 877.042 590.205 C 870.118 589.936 864.281 588.390 859.538 585.571 C 853.487 581.957 850.631 576.801 850.951 570.124 C 851.327 562.304 856.033 555.212 865.031 548.835 C 873.579 542.837 882.257 539.851 891.098 539.851 C 895.261 539.851 899.942 540.559 905.145 541.977 C 912.065 543.828 915.501 546.199 915.444 549.094 C 915.368 552.909 913.386 554.821 909.497 554.821 C 907.769 554.821 904.756 554.364 900.460 553.452 C 896.169 552.496 892.838 552.041 890.463 552.084 C 883.728 552.171 877.949 553.843 873.115 557.107 C 868.135 560.467 865.538 564.561 865.337 569.397 C 865.184 573.060 868.303 575.648 874.700 577.156 C 877.079 577.732 881.709 578.265 888.591 578.754 C 898.570 579.509 906.313 582.714 911.836 588.389 C 916.913 593.598 919.393 599.983 919.259 607.565 C 919.067 618.458 914.007 627.228 904.037 633.826 C 895.337 639.571 885.315 642.454 874.004 642.454 C 865.789 642.454 858.342 640.812 851.676 637.536 C 843.545 633.523 839.603 628.039 839.828 621.105 Z"/>
<path fill="#fffc00" fill-rule="evenodd" stroke="#1a1a1a" stroke-width="5" stroke-linecap="round" stroke-linejoin="round" d="M 997.063 641.257 C 983.111 641.258 972.679 637.068 965.807 628.735 C 960.273 622.073 956.816 612.290 955.423 599.463 C 954.776 593.733 954.473 582.380 954.514 565.571 C 954.529 559.440 954.670 554.516 954.938 550.783 C 955.205 546.846 955.598 544.107 956.117 542.558 C 957.195 539.422 959.126 537.857 961.914 537.857 C 965.859 537.857 967.844 541.483 967.869 548.770 C 967.914 561.539 967.959 574.454 968.005 587.516 C 968.101 614.968 977.611 628.943 996.533 628.943 C 1014.340 628.943 1022.606 605.517 1021.371 560.052 C 1021.326 558.393 1021.268 556.257 1021.197 553.647 C 1021.084 551.043 1021.015 549.311 1020.991 548.445 C 1020.919 545.767 1021.328 543.418 1022.218 541.397 C 1023.347 538.821 1025.090 537.535 1027.448 537.535 C 1031.736 537.535 1033.977 540.473 1034.171 546.371 C 1034.230 548.143 1034.340 550.826 1034.502 554.429 C 1034.622 558.044 1034.712 560.751 1034.771 562.545 C 1036.486 614.418 1023.936 641.257 997.063 641.257 Z"/>
<path fill="#fffc00" fill-rule="evenodd" stroke="#1a1a1a" stroke-width="5" stroke-linecap="round" stroke-linejoin="round" d="M 1173.652 644.286 C 1171.226 644.286 1169.110 642.970 1167.306 640.344 C 1165.763 638.097 1164.226 634.361 1162.699 629.152 C 1161.549 625.168 1160.404 621.197 1159.264 617.240 C 1156.819 609.914 1152.598 593.913 1146.686 569.596 C 1143.410 582.960 1140.096 596.482 1136.743 610.165 C 1135.767 614.510 1134.787 618.872 1133.805 623.250 C 1132.590 628.479 1131.232 632.777 1129.733 636.134 C 1128.108 639.688 1125.701 641.469 1122.516 641.469 C 1119.869 641.469 1117.681 639.969 1115.957 636.975 C 1114.842 635.014 1113.782 632.521 1112.780 629.500 C 1111.964 626.927 1111.150 624.359 1110.339 621.796 C 1104.829 605.631 1099.854 588.569 1095.409 570.654 C 1094.860 574.609 1094.309 578.577 1093.757 582.558 C 1091.614 594.386 1089.450 606.336 1087.263 618.412 C 1087.142 622.696 1086.374 629.059 1084.953 637.536 C 1083.803 641.187 1081.677 643.018 1078.579 643.018 C 1076.379 643.018 1074.588 642.196 1073.207 640.555 C 1072.019 639.149 1071.376 637.419 1071.278 635.364 C 1070.907 627.598 1071.989 618.136 1074.502 607.019 C 1076.470 597.881 1078.423 588.816 1080.360 579.820 C 1081.254 572.840 1082.143 565.901 1083.026 559.004 C 1084.400 549.397 1086.053 543.160 1087.993 540.237 C 1089.566 537.750 1091.615 536.508 1094.143 536.508 C 1096.929 536.508 1099.106 538.093 1100.677 541.268 C 1102.596 545.099 1104.908 552.952 1107.631 564.912 C 1110.893 579.443 1115.577 595.377 1121.720 612.770 C 1127.006 595.286 1131.286 577.355 1134.581 559.004 C 1134.983 555.822 1135.384 552.649 1135.785 549.484 C 1136.262 545.681 1137.031 542.622 1138.093 540.301 C 1139.513 537.129 1141.678 535.546 1144.591 535.546 C 1148.275 535.546 1151.384 539.100 1153.932 546.242 C 1154.834 548.705 1156.120 553.821 1157.796 561.626 C 1162.121 581.578 1166.893 598.898 1172.105 613.457 C 1173.554 617.401 1175.008 621.359 1176.469 625.329 C 1178.763 631.731 1179.985 635.691 1180.126 637.185 C 1180.315 639.196 1179.734 640.882 1178.381 642.243 C 1177.070 643.604 1175.494 644.286 1173.652 644.286 Z"/>
<path fill="#fffc00" fill-rule="evenodd" stroke="#1a1a1a" stroke-width="5" stroke-linecap="round" stroke-linejoin="round" d="M 1242.952 519.312 C 1241.895 520.366 1240.707 520.893 1239.387 520.893 C 1237.855 520.893 1236.420 520.302 1235.082 519.122 C 1233.788 517.943 1233.049 516.598 1232.862 515.086 C 1232.687 513.660 1233.176 512.298 1234.329 511.001 C 1235.932 509.246 1238.286 505.932 1241.384 501.072 C 1243.708 497.514 1246.418 494.564 1249.515 492.218 C 1250.545 491.438 1251.606 491.047 1252.698 491.047 C 1254.209 491.047 1255.612 491.643 1256.907 492.835 C 1258.198 493.988 1258.945 495.306 1259.148 496.791 C 1259.373 498.444 1258.770 499.892 1257.335 501.134 C 1254.694 503.458 1252.244 506.473 1249.983 510.186 C 1247.614 514.121 1245.270 517.165 1242.952 519.312 M 1270.877 545.465 C 1269.832 546.933 1268.383 547.667 1266.531 547.667 C 1265.928 547.667 1265.245 547.559 1264.484 547.343 C 1256.932 545.271 1249.786 544.237 1243.034 544.237 C 1239.508 544.237 1235.699 544.560 1231.605 545.207 C 1227.509 545.854 1223.128 546.846 1218.460 548.186 C 1219.172 551.000 1219.626 553.256 1219.822 554.951 C 1220.520 561.014 1221.117 569.397 1221.613 580.154 C 1231.070 579.221 1240.519 578.288 1249.962 577.355 C 1258.268 576.469 1263.378 576.025 1265.297 576.025 C 1267.216 576.025 1268.914 576.646 1270.392 577.888 C 1271.872 579.132 1272.755 580.799 1273.042 582.893 C 1273.600 586.957 1271.895 589.241 1267.926 589.734 C 1262.766 590.205 1257.605 590.677 1252.443 591.148 C 1242.417 592.091 1232.384 593.036 1222.342 593.980 C 1222.532 597.181 1222.727 600.232 1222.926 603.133 C 1223.164 605.995 1223.427 608.682 1223.713 611.193 C 1224.871 621.335 1226.270 627.344 1227.905 629.152 C 1229.127 630.452 1232.709 631.103 1238.650 631.103 C 1241.419 631.103 1245.565 631.033 1251.086 630.893 C 1256.645 630.708 1260.831 630.615 1263.645 630.615 C 1264.538 630.615 1265.837 630.476 1267.542 630.197 C 1269.240 629.872 1270.513 629.709 1271.362 629.709 C 1276.094 629.709 1278.790 632.126 1279.453 636.975 C 1279.991 640.906 1278.407 643.276 1274.697 644.074 C 1270.593 644.968 1261.507 645.415 1247.439 645.415 C 1233.507 645.415 1224.346 643.487 1219.967 639.641 C 1215.208 635.481 1212.027 625.954 1210.427 611.193 C 1210.111 608.272 1209.832 605.085 1209.590 601.636 C 1209.349 598.197 1209.123 594.498 1208.913 590.542 C 1208.318 589.510 1207.958 588.412 1207.832 587.248 C 1207.667 585.727 1207.935 584.365 1208.635 583.160 C 1208.110 570.345 1207.518 560.970 1206.859 554.951 C 1206.683 553.343 1206.211 551.000 1205.444 547.927 C 1204.674 544.819 1204.203 542.472 1204.030 540.881 C 1203.474 535.781 1205.337 533.240 1209.616 533.240 C 1211.414 533.240 1213.024 533.859 1214.450 535.097 C 1219.430 533.731 1224.146 532.706 1228.599 532.024 C 1233.092 531.343 1237.346 531.002 1241.365 531.002 C 1251.753 531.002 1260.213 532.237 1266.755 534.712 C 1269.783 535.866 1271.505 537.921 1271.917 540.881 C 1272.156 542.601 1271.810 544.129 1270.877 545.465 Z"/>
<path fill="#fffc00" fill-rule="evenodd" stroke="#1a1a1a" stroke-width="5" stroke-linecap="round" stroke-linejoin="round" d="M 466.383 776.916 C 466.774 774.714 467.793 772.934 469.437 771.574 C 471.137 770.164 473.004 769.460 475.038 769.460 C 477.357 769.460 479.108 770.921 480.292 773.850 C 481.940 777.835 483.580 780.543 485.209 781.965 C 488.691 784.920 494.295 786.400 502.013 786.400 C 509.398 786.400 516.575 784.630 523.529 781.096 C 532.393 776.575 537.497 770.321 538.859 762.359 C 539.974 755.840 537.493 750.717 531.433 746.972 C 526.332 743.750 519.644 742.014 511.362 741.759 C 504.026 741.453 498.066 739.695 493.491 736.491 C 487.659 732.384 485.495 726.527 486.978 718.945 C 488.715 710.068 494.938 702.020 505.609 694.786 C 515.731 687.986 525.477 684.600 534.890 684.600 C 539.322 684.600 544.186 685.403 549.486 687.011 C 556.541 689.109 559.800 691.797 559.250 695.081 C 558.526 699.407 556.092 701.576 551.950 701.576 C 550.109 701.576 546.977 701.058 542.556 700.022 C 538.148 698.939 534.677 698.422 532.141 698.471 C 524.953 698.570 518.514 700.466 512.811 704.169 C 506.933 707.983 503.470 712.629 502.431 718.119 C 501.643 722.278 504.526 725.218 511.087 726.930 C 513.524 727.585 518.368 728.191 525.621 728.746 C 536.129 729.604 543.840 733.245 548.767 739.695 C 553.299 745.616 554.864 752.878 553.439 761.503 C 551.390 773.902 544.504 783.890 532.743 791.408 C 522.477 797.957 511.285 801.244 499.206 801.244 C 490.435 801.244 482.764 799.372 476.209 795.637 C 468.217 791.063 464.951 784.814 466.383 776.916 Z"/>
<path fill="#fffc00" fill-rule="evenodd" stroke="#1a1a1a" stroke-width="5" stroke-linecap="round" stroke-linejoin="round" d="M 651.902 739.848 C 651.252 730.059 650.608 720.348 649.970 710.714 C 641.850 722.229 633.654 733.854 625.379 745.590 C 631.263 744.005 640.107 742.091 651.902 739.848 M 669.330 796.756 C 667.665 798.304 665.875 799.078 663.959 799.078 C 659.553 799.078 656.488 792.789 654.776 780.306 C 654.125 775.579 653.606 767.349 653.219 755.686 C 648.328 756.408 641.877 757.700 633.859 759.561 C 627.397 760.986 620.929 762.411 614.454 763.838 C 611.129 770.660 605.647 780.701 597.958 794.039 C 595.993 797.023 593.693 798.517 591.060 798.517 C 589.144 798.517 587.536 797.743 586.236 796.197 C 584.986 794.652 584.533 792.736 584.878 790.452 C 585.261 787.908 590.297 778.282 599.889 761.737 C 599.284 760.390 599.112 758.837 599.370 757.079 C 599.983 752.903 602.676 750.230 607.447 749.049 C 614.348 738.118 622.806 725.671 632.782 711.758 C 646.190 693.046 654.140 683.798 656.790 683.798 C 660.398 683.798 662.531 686.475 663.190 691.846 C 663.614 700.098 664.042 708.405 664.473 716.770 C 665.808 734.259 667.163 752.003 668.540 770.008 C 669.403 774.138 670.269 778.282 671.140 782.440 C 672.023 786.717 672.384 789.577 672.218 791.010 C 671.954 793.294 670.992 795.211 669.330 796.756 Z"/>
<path fill="#fffc00" fill-rule="evenodd" stroke="#1a1a1a" stroke-width="5" stroke-linecap="round" stroke-linejoin="round" d="M 813.479 779.044 C 813.329 781.570 812.698 785.792 811.582 791.727 C 810.496 797.103 807.772 799.800 803.413 799.800 C 800.779 799.800 797.766 797.877 794.383 794.039 C 776.440 773.718 756.695 744.976 735.414 708.404 C 734.772 714.050 734.127 719.722 733.479 725.420 C 732.872 731.171 732.261 736.949 731.649 742.754 C 731.252 746.998 730.725 753.392 730.064 761.970 C 729.447 770.608 728.931 777.153 728.518 781.570 C 727.188 795.823 724.023 803.012 719.035 803.012 C 716.397 803.012 714.403 802.074 713.053 800.201 C 711.829 798.544 711.331 796.569 711.560 794.279 C 711.782 792.045 712.261 788.676 712.994 784.181 C 713.772 779.701 714.270 776.365 714.488 774.164 C 714.810 770.921 715.383 766.099 716.205 759.717 C 717.028 753.315 717.595 748.536 717.910 745.360 C 718.244 741.988 718.675 736.923 719.203 730.185 C 719.733 723.433 720.160 718.419 720.488 715.122 C 720.799 711.982 720.983 707.338 721.040 701.206 C 721.101 695.056 721.286 690.452 721.593 687.376 C 721.817 685.136 722.911 683.093 724.875 681.248 C 726.880 679.407 729.021 678.487 731.300 678.487 C 733.716 678.487 736.437 681.297 739.475 686.938 C 749.259 705.257 758.296 720.698 766.537 733.144 C 776.467 748.074 787.653 762.515 800.108 776.444 C 800.395 774.190 800.610 770.869 800.751 766.490 C 800.890 763.216 801.031 759.950 801.171 756.692 C 802.624 734.233 802.974 716.645 802.248 703.724 C 802.148 702.440 801.697 699.850 800.898 695.964 C 800.202 692.629 799.917 690.037 800.042 688.181 C 800.420 682.535 803.025 679.721 807.859 679.721 C 815.794 679.721 818.828 695.547 816.924 727.838 C 816.594 733.448 816.026 741.886 815.217 753.212 C 814.404 764.592 813.823 773.222 813.479 779.044 Z"/>
<path fill="#fffc00" fill-rule="evenodd" stroke="#1a1a1a" stroke-width="5" stroke-linecap="round" stroke-linejoin="round" d="M 923.701 750.974 C 923.914 736.567 916.941 724.363 902.871 714.299 C 898.237 710.962 887.529 705.257 870.821 697.217 C 870.672 704.318 870.522 711.461 870.371 718.645 C 870.174 725.848 869.975 733.094 869.776 740.383 C 868.882 754.371 867.979 768.521 867.064 782.835 C 867.391 782.993 867.878 783.336 868.525 783.864 C 872.604 786.982 877.842 788.544 884.232 788.544 C 895.105 788.544 903.063 786.691 908.096 782.993 C 912.778 779.517 916.518 774.871 919.317 769.069 C 922.150 763.241 923.608 757.209 923.701 750.974 M 931.940 776.129 C 928.038 784.392 922.725 791.063 916.001 796.116 C 908.470 801.779 897.733 804.620 883.815 804.620 C 880.311 804.620 876.324 804.003 871.857 802.770 C 866.492 801.324 862.490 799.452 859.852 797.156 C 859.613 797.156 859.374 797.156 859.134 797.156 C 857.077 797.156 855.388 796.356 854.069 794.758 C 852.751 793.161 852.142 791.222 852.241 788.941 C 852.481 783.389 853.053 775.133 853.949 764.228 C 854.887 753.367 855.467 745.283 855.696 739.924 C 855.950 733.980 856.211 725.168 856.477 713.551 C 856.789 701.995 857.067 693.389 857.313 687.669 C 857.399 685.671 858.448 683.579 860.458 681.394 C 862.464 679.213 864.422 678.124 866.336 678.124 C 867.430 678.124 871.015 679.746 877.104 682.996 C 884.020 686.645 888.029 688.669 889.116 689.060 C 902.003 693.805 912.959 701.132 922.005 711.087 C 932.729 722.931 938.066 736.085 937.935 750.589 C 937.856 759.406 935.864 767.922 931.940 776.129 Z"/>
<path fill="#fffc00" fill-rule="evenodd" stroke="#1a1a1a" stroke-width="5" stroke-linecap="round" stroke-linejoin="round" d="M 1067.096 804.379 C 1064.889 804.379 1062.917 803.681 1061.181 802.288 C 1059.199 800.682 1058.163 798.704 1058.071 796.356 C 1055.623 789.922 1054.042 784.709 1053.320 780.701 C 1052.600 776.707 1050.313 765.449 1046.500 747.126 C 1043.637 733.422 1041.684 722.529 1040.622 714.373 C 1037.030 730.943 1033.006 745.155 1028.555 756.924 C 1023.353 770.686 1019.994 781.570 1018.516 789.498 C 1019.118 790.718 1019.433 791.912 1019.461 793.082 C 1019.518 795.477 1018.608 797.450 1016.728 798.998 C 1015.036 800.441 1013.087 801.164 1010.882 801.164 C 1004.412 801.164 1001.124 797.930 1001.017 791.488 C 1000.222 788.120 999.430 784.762 998.640 781.412 C 995.862 768.574 993.113 755.867 990.392 743.290 C 987.207 730.690 981.875 712.853 974.478 690.012 C 974.151 688.937 973.985 687.961 973.980 687.084 C 973.953 682.559 976.335 680.303 981.124 680.303 C 984.089 680.303 986.389 682.025 988.027 685.476 C 988.871 687.230 990.605 692.287 993.243 700.688 C 996.091 709.646 998.991 720.523 1001.949 733.372 C 1004.414 744.619 1006.903 755.970 1009.415 767.427 C 1014.191 754.577 1018.827 739.110 1023.311 721.124 C 1026.030 710.291 1028.105 702.835 1029.550 698.693 C 1033.354 687.864 1037.183 682.486 1041.064 682.486 C 1044.260 682.486 1046.582 684.211 1048.035 687.669 C 1049.840 691.870 1051.898 701.946 1054.229 718.044 C 1055.480 726.275 1057.459 736.237 1060.180 747.972 C 1062.619 758.088 1065.078 768.287 1067.559 778.571 C 1073.151 761.763 1079.953 739.389 1087.882 711.758 C 1088.311 710.266 1089.214 705.579 1090.584 697.734 C 1091.601 691.993 1092.980 687.547 1094.723 684.381 C 1096.215 681.709 1098.282 680.375 1100.928 680.375 C 1105.535 680.375 1107.989 682.802 1108.292 687.669 C 1108.343 688.498 1107.762 690.941 1106.545 695.007 C 1105.787 697.660 1105.028 700.319 1104.270 702.983 C 1103.264 707.388 1102.257 711.809 1101.246 716.245 C 1095.380 734.411 1089.426 752.852 1083.383 771.574 C 1081.747 777.809 1078.836 786.929 1074.624 798.998 C 1073.062 802.583 1070.552 804.379 1067.096 804.379 Z"/>
<path fill="#fffc00" fill-rule="evenodd" stroke="#1a1a1a" stroke-width="5" stroke-linecap="round" stroke-linejoin="round" d="M 1196.474 700.836 C 1193.530 700.836 1189.795 700.515 1185.273 699.875 C 1181.523 699.358 1177.775 698.841 1174.029 698.324 C 1174.252 712.729 1174.954 726.653 1176.143 740.077 C 1176.460 743.647 1176.945 748.074 1177.603 753.367 C 1178.263 758.682 1178.755 763.163 1179.078 766.802 C 1179.514 771.705 1179.745 776.182 1179.772 780.227 C 1187.247 780.122 1194.723 780.017 1202.198 779.912 C 1204.194 779.912 1205.935 780.701 1207.424 782.281 C 1208.957 783.811 1209.838 785.713 1210.067 787.988 C 1210.301 790.320 1209.806 792.285 1208.580 793.880 C 1207.395 795.424 1205.798 796.197 1203.789 796.197 C 1201.110 796.196 1197.099 796.276 1191.757 796.436 C 1186.409 796.543 1182.395 796.596 1179.716 796.596 C 1176.558 796.596 1171.863 797.076 1165.626 798.037 C 1159.436 799.051 1154.735 799.559 1151.525 799.559 C 1149.514 799.559 1147.753 798.758 1146.245 797.156 C 1144.791 795.610 1143.980 793.693 1143.811 791.408 C 1143.643 789.127 1144.167 787.193 1145.383 785.607 C 1146.646 784.022 1148.275 783.231 1150.274 783.231 C 1153.367 783.231 1158.438 782.677 1165.483 781.570 C 1165.605 777.310 1165.439 772.463 1164.988 767.036 C 1164.690 763.449 1164.163 759.095 1163.409 753.984 C 1162.701 748.844 1162.205 744.542 1161.917 741.070 C 1160.948 729.351 1160.397 714.872 1160.261 697.734 C 1157.283 697.833 1154.304 697.931 1151.325 698.029 C 1148.344 698.103 1145.363 698.177 1142.382 698.250 C 1140.406 698.250 1138.698 697.537 1137.260 696.112 C 1135.824 694.688 1135.026 692.874 1134.865 690.672 C 1134.533 686.133 1136.498 683.652 1140.759 683.215 C 1144.428 682.826 1151.329 682.632 1161.465 682.632 C 1170.551 682.632 1182.040 683.676 1195.949 685.768 C 1200.082 686.401 1202.381 689.011 1202.848 693.609 C 1203.082 695.915 1202.488 697.758 1201.065 699.136 C 1199.799 700.269 1198.268 700.836 1196.474 700.836 Z"/>
<path fill="#fffc00" fill-rule="evenodd" stroke="#1a1a1a" stroke-width="5" stroke-linecap="round" stroke-linejoin="round" d="M 1304.199 710.043 C 1301.244 710.043 1298.765 708.181 1296.768 704.466 C 1295.037 701.304 1293.573 699.382 1292.374 698.693 C 1291.334 698.152 1288.907 697.881 1285.094 697.881 C 1278.431 697.881 1271.744 703.353 1264.984 714.373 C 1255.701 729.326 1251.829 743.673 1253.468 757.390 C 1254.266 764.072 1256.920 769.851 1261.441 774.714 C 1266.094 779.754 1271.282 782.281 1276.990 782.281 C 1281.889 782.281 1286.629 780.885 1291.200 778.098 C 1293.742 776.523 1297.543 773.431 1302.593 768.834 C 1304.983 766.646 1306.862 765.553 1308.233 765.553 C 1310.264 765.553 1312.088 766.412 1313.704 768.130 C 1315.316 769.799 1316.273 771.679 1316.575 773.771 C 1316.915 776.129 1316.312 778.203 1314.763 779.991 C 1303.925 792.365 1292.001 798.597 1279.074 798.597 C 1269.163 798.597 1260.274 794.359 1252.446 785.924 C 1244.939 777.809 1240.580 768.287 1239.341 757.390 C 1237.363 740.001 1241.957 722.429 1252.978 704.688 C 1262.052 690.086 1272.051 682.850 1283.055 682.850 C 1285.292 682.850 1287.318 682.972 1289.132 683.215 C 1290.941 683.409 1292.564 683.749 1294.002 684.236 C 1295.253 681.758 1297.154 680.521 1299.708 680.521 C 1302.856 680.521 1305.160 682.729 1306.625 687.157 C 1307.933 691.112 1309.010 695.989 1309.856 701.798 C 1310.151 703.823 1309.904 705.604 1309.113 707.139 C 1308.147 709.074 1306.509 710.043 1304.199 710.043 Z"/>
<path fill="#fffc00" fill-rule="evenodd" stroke="#1a1a1a" stroke-width="5" stroke-linecap="round" stroke-linejoin="round" d="M 1429.022 688.840 C 1428.737 690.892 1428.984 693.903 1429.763 697.881 C 1430.053 699.358 1430.529 701.551 1431.192 704.466 C 1431.857 707.387 1432.336 709.596 1432.629 711.087 C 1433.606 716.070 1434.651 723.534 1435.769 733.524 C 1436.943 743.596 1438.034 751.231 1439.039 756.383 C 1439.806 760.312 1441.220 766.229 1443.290 774.164 C 1445.374 782.150 1446.820 788.200 1447.619 792.285 C 1448.046 794.465 1447.736 796.303 1446.688 797.796 C 1445.686 799.292 1444.202 800.040 1442.238 800.040 C 1440.322 800.040 1438.550 799.292 1436.923 797.796 C 1435.299 796.303 1434.280 794.465 1433.865 792.285 C 1433.088 788.200 1431.675 782.150 1429.636 774.164 C 1427.609 766.229 1426.228 760.312 1425.483 756.383 C 1424.770 752.620 1424.166 748.818 1423.672 744.976 C 1415.689 745.130 1406.017 746.435 1394.640 748.895 C 1385.151 751.000 1375.646 753.110 1366.124 755.222 C 1366.893 759.872 1367.567 766.516 1368.146 775.186 C 1368.721 783.864 1369.407 790.638 1370.202 795.477 C 1370.562 797.663 1370.194 799.506 1369.098 801.003 C 1368.057 802.556 1366.553 803.333 1364.586 803.333 C 1362.619 803.333 1360.840 802.556 1359.249 801.003 C 1357.717 799.506 1356.777 797.663 1356.430 795.477 C 1355.535 789.843 1354.612 781.491 1353.665 770.477 C 1352.765 759.509 1351.882 751.334 1351.012 745.897 C 1350.563 743.086 1349.793 738.855 1348.705 733.220 C 1347.623 727.611 1346.858 723.408 1346.410 720.598 C 1345.778 716.645 1345.066 710.739 1344.276 702.909 C 1343.482 695.081 1342.778 689.255 1342.161 685.403 C 1341.834 683.360 1342.178 681.661 1343.191 680.303 C 1344.249 678.947 1345.712 678.269 1347.580 678.269 C 1349.449 678.269 1351.110 678.947 1352.564 680.303 C 1354.066 681.661 1354.987 683.360 1355.325 685.403 C 1355.972 689.304 1356.694 695.179 1357.492 703.057 C 1358.334 710.937 1359.087 716.894 1359.749 720.899 C 1360.938 727.258 1362.135 733.651 1363.337 740.077 C 1373.017 738.016 1382.681 735.959 1392.329 733.904 C 1403.872 731.474 1413.723 730.210 1421.900 730.109 C 1421.041 722.906 1419.244 712.132 1416.530 697.881 C 1415.819 694.149 1415.674 690.379 1416.091 686.572 C 1416.603 681.370 1418.225 678.777 1420.960 678.777 C 1422.692 678.777 1424.374 679.455 1426.008 680.812 C 1427.634 682.122 1428.648 683.798 1429.050 685.842 C 1429.194 686.572 1429.184 687.571 1429.022 688.840 Z"/>
</g>
<g id="Sesame">
<path fill="#fff497" fill-rule="evenodd" stroke="#000000" stroke-width="6" stroke-linecap="round" stroke-linejoin="round" d="M 633.372 174.113 C 651.169 174.113 656.927 181.104 656.927 186.676 C 656.927 192.248 651.169 199.238 633.372 199.238 C 615.575 199.238 609.818 192.248 609.818 186.676 C 609.818 181.104 615.575 174.113 633.372 174.113 Z"/>
<path fill="#fff497" fill-rule="evenodd" stroke="#000000" stroke-width="6" stroke-linecap="round" stroke-linejoin="round" d="M 762.139 114.441 C 779.936 114.441 785.694 121.431 785.694 127.004 C 785.694 132.576 779.936 139.566 762.139 139.566 C 744.342 139.566 738.584 132.576 738.584 127.004 C 738.584 121.431 744.342 114.441 762.139 114.441 Z"/>
<path fill="#fff497" fill-rule="evenodd" stroke="#000000" stroke-width="6" stroke-linecap="round" stroke-linejoin="round" d="M 944.297 224.364 C 962.094 224.364 967.852 231.354 967.852 236.927 C 967.852 242.499 962.094 249.489 944.297 249.489 C 926.500 249.489 920.742 242.499 920.742 236.927 C 920.742 231.354 926.500 224.364 944.297 224.364 Z"/>
<path fill="#fff497" fill-rule="evenodd" stroke="#000000" stroke-width="6" stroke-linecap="round" stroke-linejoin="round" d="M 1104.470 123.862 C 1122.267 123.862 1128.025 130.853 1128.025 136.425 C 1128.025 141.997 1122.267 148.988 1104.470 148.988 C 1086.673 148.988 1080.915 141.997 1080.915 136.425 C 1080.915 130.853 1086.673 123.862 1104.470 123.862 Z"/>
<path fill="#fff497" fill-rule="evenodd" stroke="#000000" stroke-width="6" stroke-linecap="round" stroke-linejoin="round" d="M 1267.784 290.317 C 1285.581 290.317 1291.339 297.308 1291.339 302.880 C 1291.339 308.452 1285.581 315.443 1267.784 315.443 C 1249.987 315.443 1244.229 308.452 1244.229 302.880 C 1244.229 297.308 1249.987 290.317 1267.784 290.317 Z"/>
<path fill="#fff497" fill-rule="evenodd" stroke="#000000" stroke-width="6" stroke-linecap="round" stroke-linejoin="round" d="M 570.560 290.317 C 588.357 290.317 594.114 297.308 594.114 302.880 C 594.114 308.452 588.357 315.443 570.560 315.443 C 552.763 315.443 547.005 308.452 547.005 302.880 C 547.005 297.308 552.763 290.317 570.560 290.317 Z"/>
<path fill="#fff497" fill-rule="evenodd" stroke="#000000" stroke-width="6" stroke-linecap="round" stroke-linejoin="round" d="M 1252.081 183.535 C 1269.878 183.535 1275.635 190.526 1275.635 196.098 C 1275.635 201.670 1269.878 208.660 1252.081 208.660 C 1234.284 208.660 1228.526 201.670 1228.526 196.098 C 1228.526 190.525 1234.284 183.535 1252.081 183.535 Z"/>
<path fill="#fff497" fill-rule="evenodd" stroke="#000000" stroke-width="6" stroke-linecap="round" stroke-linejoin="round" d="M 812.389 287.177 C 830.186 287.177 835.944 294.167 835.944 299.739 C 835.944 305.312 830.186 312.302 812.389 312.302 C 794.592 312.302 788.835 305.312 788.835 299.739 C 788.835 294.167 794.592 287.177 812.389 287.177 Z"/>
<path fill="#fff497" fill-rule="evenodd" stroke="#000000" stroke-width="6" stroke-linecap="round" stroke-linejoin="round" d="M 1095.048 302.880 C 1112.845 302.880 1118.603 309.870 1118.603 315.443 C 1118.603 321.015 1112.845 328.005 1095.048 328.005 C 1077.251 328.005 1071.493 321.015 1071.493 315.443 C 1071.493 309.870 1077.251 302.880 1095.048 302.880 Z"/>
</g>
</svg>
